<svg width="545" height="163" viewBox="0 0 545 163" fill="none" xmlns="http://www.w3.org/2000/svg">
<path d="M12.3 71.5C17.4 77.3 22.7 81.8 28.3 85C33.9 88.2 40.7 89.8 48.9 89.8C53.2 89.8 57.4 89.2 61.4 88.1C65.4 86.9 68.7001 85.3 71.3 83.1C73.9 80.8 75.2001 77.9 75.2001 74.5C75.2001 69.7 72.6001 66.3 67.3 64.3C62.1 62.3 54.8 60.6 45.4 59.3C33.7 57.6 24.4 54.4 17.5 49.8C10.6 45 7.20005 38.2 7.20005 29.3C7.20005 23.3 9.00005 18.1 12.7 13.7C16.4 9.3 21.4001 5.9 27.7001 3.6C33.9001 1.2 40.9 0 48.4 0C57.8 0 65.9001 1.5 72.7001 4.6C79.5001 7.7 84.9 12 89 17.7L78.4 29C75 24.6 70.8 21 65.7001 18.2C60.6001 15.4 54.7001 14 48 14C41.1 14 35.3 15.2 30.6 17.7C26 20.1 23.7001 23.5 23.7001 27.9C23.7001 31.4 24.8 34.1 27 36.3C29.3 38.3 32.5 39.9 36.5 41.2C40.6 42.4 45.4 43.3 50.9 44.1C56.2 44.9 61.2 45.9 66 47.1C70.9 48.3 75.3 49.9 79.1001 52C82.9001 54 86.0001 56.6 88.2001 59.8C90.5001 63 91.7001 66.9 91.7001 71.6C91.7001 78.1 89.9 83.8 86.4 88.6C82.8 93.4 77.8 97.1 71.3 99.8C64.8 102.4 57.1 103.7 48.3 103.7C38.8 103.7 30.2001 102.2 22.5 99.1C14.8 96 8.10005 91 2.30005 84.1L12.3 71.5Z" fill="white"/>
<path d="M442.9 32.9C442.9 39.7 440.8 45.9 436.6 51.3C432.5 56.7 427.2 60.5 420.8 62.8L448.2 102.4L428.8 102.3L403.2 64.9L373 20.5V102.3H357.4V1.5H410.5C416.2 1.5 421.4 2.8 426.3 5.5C431.2 8.2 435.2 11.9 438.3 16.6C441.4 21.3 442.9 26.7 442.9 32.9ZM406.8 16.5H393H388.7L411.6 49.6C414.3 49.1 414.8 49 417.6 47.6C420.5 46.1 422.5 43.9 424.1 41.3C425.7 38.7 426.5 35.9 426.5 32.9C426.5 29.7 425.6 26.9 423.8 24.4C422.1 21.9 419.7 20 416.6 18.6C413.6 17.2 410.3 16.5 406.8 16.5Z" fill="#A6C155"/>
<path d="M125.8 1.5H110.8V102.3H125.8V1.5Z" fill="white"/>
<path d="M205.8 1.5L165.7 55.2L137.8 17.9V43.6L160.8 73.4H170.3L205.8 25.8V102.3H220.8V1.5H205.8Z" fill="white"/>
<path d="M297.8 1.5H280.4L256.6 54.3H272.8L280.8 36.6C282.1 33.5 283.4 30.5 284.7 27.4C285.9 24.2 287.2 20.9 288.6 17.5C289.8 20.9 291.1 24 292.3 27C293.5 30 294.8 33 296 36.1L308.4 63.3H252.5L234.8 102.3H250.9L261.8 78.1H315.1L325.9 102.3H342.9L297.8 1.5Z" fill="white"/>
<path d="M508.7 25.5H493.1V102.3H508.7V25.5Z" fill="white"/>
<path d="M458.5 1.5V16.5H493.1H508.6H544.2V1.5H458.5Z" fill="white"/>
<path d="M143.1 155.6C141.9 156.7 140.3 157.8 138.3 158.9C136.3 160 134 161 131.4 161.8C128.8 162.6 126.1 163 123.2 163C119.6 163 116.2 162.4 113.1 161.3C110 160.1 107.2 158.5 104.9 156.3C102.6 154.2 100.8 151.6 99.5 148.6C98.2 145.6 97.5 142.2 97.5 138.5C97.5 135 98.2 131.8 99.5 128.8C100.9 125.9 102.8 123.3 105.2 121.1C107.6 118.9 110.4 117.2 113.5 116.1C116.6 114.9 119.9 114.3 123.4 114.3C126.3 114.3 129 114.7 131.6 115.5C134.2 116.3 136.6 117.3 138.6 118.5C140.7 119.7 142.4 121 143.6 122.3L139 128.1C136.8 126.2 134.4 124.6 131.7 123.4C129.1 122.1 126.1 121.5 122.9 121.5C120.6 121.5 118.3 121.9 116.2 122.7C114.1 123.5 112.1 124.6 110.4 126.1C108.7 127.6 107.4 129.3 106.3 131.4C105.3 133.5 104.8 135.8 104.8 138.5C104.8 142.3 105.7 145.5 107.5 148.1C109.3 150.6 111.7 152.6 114.6 153.9C117.5 155.2 120.6 155.8 124 155.8C126.4 155.8 128.5 155.5 130.4 154.8C132.3 154.2 134 153.4 135.5 152.4C137 151.4 138.3 150.5 139.5 149.5L143.1 155.6Z" fill="white"/>
<path d="M328.4 138.5C328.4 141.9 327.7 145.2 326.4 148.2C325.1 151.1 323.2 153.7 320.8 156C318.4 158.2 315.6 160 312.3 161.2C309 162.4 305.4 163 301.5 163C297.6 163 294 162.4 290.7 161.2C287.4 159.9 284.6 158.2 282.2 156C279.8 153.8 278 151.2 276.7 148.2C275.4 145.2 274.7 142 274.7 138.5C274.7 135.1 275.4 131.9 276.7 128.9C278 125.9 279.8 123.3 282.2 121.1C284.6 118.9 287.4 117.2 290.7 115.9C294 114.6 297.6 114 301.5 114C305.4 114 309 114.6 312.3 115.9C315.6 117.1 318.4 118.8 320.8 121.1C323.2 123.3 325.1 125.9 326.4 128.9C327.8 131.9 328.4 135.1 328.4 138.5ZM321 138.5C321 135.2 320.2 132.2 318.5 129.7C316.9 127.1 314.6 125 311.6 123.5C308.7 122 305.4 121.2 301.6 121.2C297.8 121.2 294.4 122 291.5 123.5C288.6 125 286.3 127.1 284.7 129.7C283.1 132.3 282.3 135.2 282.3 138.5C282.3 141.8 283.1 144.8 284.7 147.4C286.3 150 288.6 152 291.5 153.6C294.4 155.1 297.8 155.8 301.6 155.8C305.4 155.8 308.7 155.1 311.6 153.6C314.5 152.1 316.8 150 318.5 147.3C320.1 144.7 321 141.8 321 138.5Z" fill="white"/>
<path d="M23.7 127.8H16.4V162.3H23.7V127.8Z" fill="white"/>
<path d="M40.5 114.7H0V122.3H40.5V114.7Z" fill="white"/>
<path d="M222.8 114.7H214.8V162.3H222.8V114.7Z" fill="white"/>
<path d="M255.5 114.7V130.3C255.5 132.6 255.5 135.1 255.6 137.7C255.7 140.3 255.8 142.9 255.9 145.5C256.1 148 256.3 150.4 256.6 152.7L227.3 120.2V131.6L255.7 162.3H262.8V114.7H255.5Z" fill="white"/>
<path d="M87 155.3H51V162.3H87V155.3Z" fill="white"/>
<path d="M51 114.7V149.3H58.3V141.4H83.3V134.4H58.3V121.8H87V114.7H51Z" fill="white"/>
<path d="M192.4 114.7V135.3H155.3V162.3H162.6V142.3H192.4V162.3H199.7V114.7H192.4Z" fill="white"/>
<path d="M162.6 114.7H155.3V129.3H162.6V114.7Z" fill="white"/>
<path d="M408.8 155.2V162.3H373.1V114.7H380.4V155.2H408.8Z" fill="#FCFCFC"/>
<path d="M447.5 114.7H439.3L428.8 137.8H436.5L439.5 131.3C440.1 129.8 440.7 128.4 441.3 126.9C441.9 125.4 442.5 123.8 443.1 122.2C443.7 123.8 444.3 125.3 444.9 126.7C445.5 128.1 446.1 129.5 446.7 131L452.5 143.8H426.1L417.7 162.3H425.3L430.5 150.9H455.7L460.8 162.3H468.8L447.5 114.7Z" fill="#FCFCFC"/>
<path d="M521.9 142.5C521 140.9 519.9 139.6 518.4 138.6C517 137.6 515.5 136.8 513.8 136.3C516.1 135.4 517.8 134.1 519 132.4C520.2 130.7 520.8 128.8 520.8 126.6C520.8 122.7 519.4 119.7 516.6 117.7C513.8 115.7 509.7 114.6 504.2 114.6H480.5V149.3H487.8V141.3H505.3C506.9 141.3 508.6 141.5 510.2 141.9C511.8 142.3 513.2 143 514.3 144C515.4 145 515.9 146.4 515.9 148.1C515.9 150.5 514.9 152.3 513 153.5C511.1 154.6 508.6 155.2 505.7 155.2H496.8H480.4V162.2H505.6C507.7 162.2 509.8 162 511.9 161.6C514 161.1 515.9 160.4 517.6 159.4C519.3 158.4 520.7 156.9 521.7 155.1C522.8 153.3 523.3 151 523.3 148.2C523.3 146 522.8 144.1 521.9 142.5ZM510.7 132.5C509 133.5 507.1 134.1 504.9 134.1H487.8V121.7H504.1C506.7 121.7 508.9 122.2 510.6 123.1C512.4 124 513.3 125.6 513.3 127.8C513.3 129.9 512.4 131.4 510.7 132.5Z" fill="#FCFCFC"/>
</svg>
